<svg xmlns="http://www.w3.org/2000/svg" version="1.1" xmlns:xlink="http://www.w3.org/1999/xlink" width="512" height="512" x="0" y="0" viewBox="0 0 512 512" style="enable-background:new 0 0 512 512" xml:space="preserve" class=""><g><path fill="#ff7e92" d="M440.371 27.551H71.629C36.212 27.551 7.5 56.263 7.5 91.68v240.484c0 35.417 28.712 56.629 64.129 56.629l78.216 7.5a24.044 24.044 0 0 1 17.004 7.043l75.427 75.427c7.579 7.579 19.867 7.579 27.446 0l75.427-75.427a24.048 24.048 0 0 1 17.004-7.043h78.216c35.417 0 64.129-28.712 64.129-64.129V91.68c.002-35.417-28.71-64.129-64.127-64.129z" opacity="0" data-original="#ff7e92" class=""></path><path fill="#da1234" d="M315.832 115.864c-21.065-1.367-40.321 6.217-54.463 19.271a7.893 7.893 0 0 1-10.737 0c-14.143-13.054-33.398-20.638-54.463-19.271-34.776 2.256-64.052 29.74-67.938 64.372-8.237 73.416 90.039 137.673 119.54 155.209a16.057 16.057 0 0 0 16.46 0c29.501-17.536 127.777-81.793 119.54-155.209-3.887-34.631-33.163-62.115-67.939-64.372z" opacity="1" data-original="#ffffff" class=""></path><path fill="#a81a26" d="M277.567 322.685c-13.59-7.652-132.462-76.916-124.031-152.099v.004c1.863-16.6 10.271-31.747 23.673-42.652l14.19-11.546c-32.644 4.339-59.462 30.812-63.168 63.844-8.236 73.416 90.04 137.674 119.54 155.209a16.055 16.055 0 0 0 16.459 0 409.874 409.874 0 0 0 16.99-10.702z" opacity="1" data-original="#ffdbde" class=""></path><path fill="#b2b2b2" d="M183.855 386.333c-8.948-8.952-21.348-14.087-34.006-14.087h-78.22c-22.099 0-40.081-17.982-40.081-40.081V41.663C16.901 53.416 7.5 71.439 7.5 91.68v240.484c0 35.417 28.712 64.129 64.129 64.129h78.216a24.046 24.046 0 0 1 17.005 7.043l75.427 75.427c7.58 7.579 19.866 7.579 27.446 0l3.264-3.265z" opacity="1" data-original="#ff5f7a" class=""></path><path d="M440.371 20.052H71.629C32.133 20.052 0 52.184 0 91.68v240.484c0 39.496 32.133 71.629 71.629 71.629h16.032a7.5 7.5 0 0 0 0-15H71.629C40.404 388.793 15 363.389 15 332.164V91.68c0-31.225 25.404-56.629 56.629-56.629h368.742C471.596 35.052 497 60.455 497 91.68v240.484c0 31.225-25.404 56.629-56.629 56.629h-78.216c-8.427 0-16.35 3.282-22.308 9.24l-75.428 75.427c-2.249 2.249-5.239 3.488-8.419 3.488s-6.17-1.239-8.419-3.488l-75.427-75.427c-5.958-5.958-13.881-9.24-22.308-9.24h-30.12a7.5 7.5 0 0 0 0 15h30.12a16.44 16.44 0 0 1 11.702 4.847l75.427 75.427c5.082 5.082 11.839 7.881 19.026 7.881s13.944-2.799 19.026-7.881l75.427-75.427a16.441 16.441 0 0 1 11.702-4.847h78.216c39.496 0 71.629-32.133 71.629-71.629V91.68c-.001-39.496-32.134-71.628-71.63-71.628z" fill="#000000" opacity="1" data-original="#000000" class=""></path><path d="M201.032 123.206c18.83 0 36.813 8.158 49.339 22.382a7.5 7.5 0 0 0 11.258 0c12.525-14.224 30.509-22.382 49.339-22.382 12.587 0 24.818 3.564 35.371 10.306a7.5 7.5 0 0 0 8.076-12.64c-12.969-8.287-27.993-12.667-43.447-12.667-20.446 0-40.071 7.818-54.968 21.683-14.896-13.865-34.521-21.683-54.968-21.683-44.548 0-80.791 36.243-80.791 80.791 0 36.483 22.458 74.23 66.748 112.194 32.313 27.696 64.13 44.861 65.469 45.578a7.503 7.503 0 0 0 7.084 0c1.339-.717 33.156-17.882 65.468-45.578 44.291-37.964 66.748-75.711 66.748-112.194 0-13.81-3.547-27.442-10.256-39.424a7.5 7.5 0 0 0-13.087 7.329c5.459 9.748 8.344 20.846 8.344 32.095 0 69.555-100.455 130.879-120.758 142.558-20.304-11.679-120.758-73.002-120.758-142.558-.001-36.276 29.512-65.79 65.789-65.79z" fill="#000000" opacity="1" data-original="#000000" class=""></path></g></svg>