<svg xmlns="http://www.w3.org/2000/svg" version="1.1" xmlns:xlink="http://www.w3.org/1999/xlink" width="512" height="512" x="0" y="0" viewBox="0 0 512.001 512.001" style="enable-background:new 0 0 512 512" xml:space="preserve" class=""><g><path d="M182.46 499.516v-21.803c0-6.895 5.589-12.485 12.485-12.485h57.665l6.395-87.843 8.083.557c4.88.337 9.659.506 14.205.506 4.179 0 8.498-.136 12.837-.406l8.032-.499 6.383 87.683h55.633c6.895 0 12.485 5.589 12.485 12.485v21.803c0 6.895-5.589 12.485-12.485 12.485H194.945c-6.895.002-12.485-5.587-12.485-12.483z" style="" fill="#9b735a" data-original="#9b735a"></path><path d="M298.1 377.944c1.38.096 2.749.173 4.11.242l-.047-.64-5.175.321 1.112.077zM284.125 378.451c-2.923.124 0 0-2.833 0-4.546 0-9.325-.17-14.205-.506l-8.083-.557-6.395 87.843h20.533c5.797 0 10.506-4.681 10.54-10.479l.443-76.301zM213.471 499.516v-21.803c0-6.895 5.589-12.485 12.485-12.485h-31.012c-6.895 0-12.485 5.589-12.485 12.485v21.803c0 6.895 5.589 12.485 12.485 12.485h31.012c-6.895 0-12.485-5.589-12.485-12.485z" style="" fill="#7f553e" data-original="#7f553e" class=""></path><path d="M281.293 386.585c-17.699 0-35.367-2.186-52.82-6.552-28.241-7.063-54.302-19.424-77.457-36.744-24.047-17.986-43.742-40.451-58.542-66.771-25.142-44.715-33.521-97.079-23.595-147.447 9.858-50.028 37.102-95.046 76.712-126.759 4.536-3.63 11.206-2.905 14.87 1.614l25.409 31.352a7.626 7.626 0 1 1-11.849 9.603l-22.477-27.732c-74.022 62.046-93.39 167.213-45.778 251.895 27.247 48.46 72.139 82.623 126.404 96.194 54.259 13.571 109.934 4.563 156.775-25.358a204.441 204.441 0 0 0 7.549-5.065l-20.012-26.033a7.626 7.626 0 0 1 12.092-9.295l22.923 29.821a10.696 10.696 0 0 1 2.098 7.956 10.502 10.502 0 0 1-4.187 7.04 219 219 0 0 1-12.253 8.428c-25.443 16.252-53.391 26.799-83.067 31.346a216.363 216.363 0 0 1-32.795 2.507z" style="" fill="#637062" data-original="#c7cfe2" class="" opacity="1"></path><path d="M280.274 339.76c-92.038 0-166.916-74.879-166.916-166.917S188.237 5.928 280.274 5.928 447.19 80.806 447.19 172.844 372.312 339.76 280.274 339.76z" style="" fill="#00a8dc" data-original="#00c3ff" class="" opacity="1"></path><path d="M338.714 281.321c-92.038 0-166.916-74.879-166.916-166.917 0-31.062 8.539-60.164 23.378-85.099-48.946 29.128-81.818 82.563-81.818 143.539 0 92.038 74.879 166.917 166.916 166.917 60.975 0 114.409-32.871 143.539-81.818-24.935 14.839-54.037 23.378-85.099 23.378z" style="" fill="#16859e" data-original="#05acd3" class="" opacity="1"></path><path d="m416.896 201.861-29.521 6.108-4.988-1.76a20.02 20.02 0 0 0-6.682-1.146 20.108 20.108 0 0 0-14.757 6.481l-14.629 15.904-9.112 8.716c-3.547 3.392-5.276 8.135-4.745 13.019a15.553 15.553 0 0 0 7.442 11.688l11.843 7.192 24.168-14.098 5.958 13.903 27.519 10.641a168.997 168.997 0 0 0 5.708-7.381c.18-.246.361-.492.54-.74a165.604 165.604 0 0 0 2.252-3.195c.486-.706.966-1.415 1.44-2.128.256-.384.509-.77.763-1.157.43-.658.857-1.318 1.277-1.981.29-.458.576-.918.861-1.378.379-.611.758-1.222 1.128-1.838.317-.528.629-1.058.942-1.59.332-.566.667-1.132.993-1.702.34-.595.671-1.196 1.005-1.795.291-.523.585-1.044.869-1.57.359-.663.708-1.333 1.057-2.002.251-.478.507-.954.753-1.435.412-.805.81-1.618 1.209-2.43.492-1.003.973-2.011 1.445-3.023.212-.455.429-.905.637-1.361.362-.795.711-1.596 1.059-2.397.156-.356.315-.711.468-1.068.37-.865.728-1.735 1.084-2.606.118-.289.238-.577.354-.866.373-.929.735-1.864 1.092-2.8.085-.224.171-.446.255-.671.374-.996.738-1.996 1.093-3.001l.162-.46c.373-1.066.736-2.134 1.088-3.209l.075-.233c.37-1.135.729-2.275 1.076-3.418l.006-.02a166.425 166.425 0 0 0 1.854-6.586l-25.041-12.607z" style="" fill="#88ec7f" data-original="#b4e66e" class="" opacity="1"></path><path d="M409.369 278.498a168.822 168.822 0 0 0 5.494-7.054l.179-.241c1.02-1.395 2.02-2.805 2.997-4.232.078-.114.15-.231.244-.336 1.051-1.177 1.812-2.574 2.597-3.944.05-.086.106-.17.16-.255l.029-.045c.738-1.157-.563-2.526-1.765-1.861a166.5 166.5 0 0 1-26.21 11.673l16.275 6.295z" style="" fill="#5dc653" data-original="#a0d755" class="" opacity="1"></path><path d="m401.274 113.643 9.634 2.029a14.213 14.213 0 0 0 7.693-.522l16.061-5.726c-1.15-2.79-2.37-5.544-3.664-8.257a169.604 169.604 0 0 0-2.557-5.121c-.111-.213-.224-.423-.336-.634a165.918 165.918 0 0 0-2.361-4.333c-.146-.26-.29-.523-.437-.782a165.932 165.932 0 0 0-2.62-4.426c-.296-.482-.599-.959-.899-1.438a166.702 166.702 0 0 0-1.865-2.907c-.386-.59-.77-1.181-1.163-1.766a165.828 165.828 0 0 0-2.477-3.574 162.697 162.697 0 0 0-1.679-2.3 167.993 167.993 0 0 0-16.855-19.499 168.234 168.234 0 0 0-2.302-2.248c-.542-.517-1.095-1.024-1.644-1.533a171.578 171.578 0 0 0-10.761-9.201c-.32-.251-.647-.495-.97-.744a170.865 170.865 0 0 0-3.603-2.705c-.275-.2-.547-.402-.822-.6a168.022 168.022 0 0 0-9.53-6.381c-.266-.166-.532-.336-.799-.499l-.662-.411a166.714 166.714 0 0 0-5.361-3.109L343.288 52.78a18.03 18.03 0 0 0-2.994 13.491l2.816 16.144v25.391c0 4.433 2.981 8.369 7.251 9.57l20.252 5.696c1.155.323 2.349.487 3.548.487 2.49 0 4.918-.702 7.022-2.03l9.46-5.975a14.3 14.3 0 0 1 7.64-2.226c.995.001 2.003.106 2.991.315zM247.683 291.011l-.325-.018c-2.984-.177-5.614-1.754-7.189-4.323l-7.854-12.902-5.154-20.617 6.273-10.265c3.191-5.22 8.971-8.462 15.087-8.462h13.561c6.49 0 12.471 3.795 15.234 9.667l7.841 16.667a9.567 9.567 0 0 1 .306 7.495 9.577 9.577 0 0 1-5.203 5.466l-21.73 9.416-3.457 4.401a9.028 9.028 0 0 1-7.136 3.476l-.254-.001z" style="" fill="#88ec7f" data-original="#b4e66e" class="" opacity="1"></path><path d="m247.683 291.011-.325-.018c-2.984-.177-5.614-1.754-7.189-4.323l-7.854-12.902-5.154-20.617 6.273-10.265c3.191-5.22 8.971-8.462 15.087-8.462h13.561c6.49 0 12.471 3.795 15.234 9.667l7.841 16.667a9.567 9.567 0 0 1 .306 7.495 9.577 9.577 0 0 1-5.203 5.466l-21.73 9.416-3.457 4.401a9.028 9.028 0 0 1-7.136 3.476l-.254-.001z" style="" fill="#88ec7f" data-original="#b4e66e" class="" opacity="1"></path><path d="m233.048 243.517-5.887 9.633 5.154 20.617 7.854 12.902c1.576 2.57 4.205 4.146 7.189 4.323l.325.018h.254c2.798 0 5.4-1.267 7.136-3.476l3.457-4.401 21.73-9.416a9.627 9.627 0 0 0 2.873-1.925 166.858 166.858 0 0 1-50.085-28.275z" style="" fill="#5dc653" data-original="#a0d755" class="" opacity="1"></path><path d="M228.504 14.157c-1.214.398-2.423.808-3.625 1.232l-.13.046a165.93 165.93 0 0 0-16.004 6.619c-.343.163-.685.323-1.027.488-25.314 12.269-47.079 30.748-63.307 53.446-.117.165-.236.327-.353.492-.563.793-1.115 1.595-1.664 2.399-.25.367-.503.733-.751 1.102-.403.6-.797 1.206-1.193 1.811-.366.561-.733 1.12-1.093 1.687-.267.421-.529.846-.793 1.269-.459.737-.918 1.473-1.367 2.219-.163.269-.319.542-.481.812-.524.882-1.045 1.765-1.554 2.658a166.906 166.906 0 0 0-4.372 8.201l29.457 12.233c.609.252 1.116.77 1.354 1.379l8.817 22.532h28.493c1.148 0 2.145.786 2.415 1.901l6.606 27.366 23.257 18.229c5.286 4.143 12.86-.59 11.453-7.157l-2.187-10.204 24.339-28.396 5.126-44.074-16.82-22.759a2.475 2.475 0 0 1-.485-1.471V43.645l-17.708-31.45c-2.15.608-4.279 1.266-6.392 1.957l-.011.005z" style="" fill="#88ec7f" data-original="#b4e66e" class="" opacity="1"></path><path d="M173.043 134.779a167.956 167.956 0 0 1-1.246-20.375c0-29.201 7.545-56.668 20.778-80.569.668-1.207-.71-2.513-1.872-1.771a168.282 168.282 0 0 0-51.915 52.32c-.117.187-.232.377-.348.565-.58.943-1.168 1.879-1.725 2.835-.37.634-.745 1.265-1.112 1.901a165.89 165.89 0 0 0-4.815 8.948l29.463 12.235c.609.252 1.116.77 1.354 1.379l8.817 22.532h2.621z" style="" fill="#5dc653" data-original="#a0d755" class="" opacity="1"></path></g></svg>