<svg xmlns="http://www.w3.org/2000/svg" version="1.1" xmlns:xlink="http://www.w3.org/1999/xlink" width="512" height="512" x="0" y="0" viewBox="0 0 512 512" style="enable-background:new 0 0 512 512" xml:space="preserve"><g><path fill-rule="evenodd" d="M512.007 210.279v-.8a32.148 32.148 0 0 0-1.132-8L477 74.9c17.173-21.929 21.938-42.079 12.077-51.967-11.039-11.021-32.458-3.071-51.942 12.1L310.51 1.107a30.335 30.335 0 0 0-29.958 8.035L9.09 280.632a31 31 0 0 0 0 43.87l178.427 178.437a31 31 0 0 0 43.829 0l271.509-271.5a30.17 30.17 0 0 0 9.152-21.16zM289.941 68.053 443.976 222.07a8.012 8.012 0 0 1 0 11.308l-228.907 228.87a7.961 7.961 0 0 1-11.275 0L49.758 308.221a8.012 8.012 0 0 1 0-11.308l228.86-228.86a8.007 8.007 0 0 1 11.323 0zm121.813 32.189c-.283-.283-.755-1.755-.283-4.741a12.763 12.763 0 0 1 2.878 2.161 15.406 15.406 0 0 1 2.17 2.849c-3.02.482-4.482-.009-4.765-.269zm-16.465-2.222c.094 7.011 2.877 11.252 5.142 13.54 2.689 2.671 6.935 5.152 13.493 5.19a13.074 13.074 0 0 1-8.917 3.491 13.216 13.216 0 0 1-9.718-22.221zm96.243 122.111L220.07 491.621a15.018 15.018 0 0 1-21.23 0L20.366 313.189a15.045 15.045 0 0 1 0-21.239l271.509-271.5a14.432 14.432 0 0 1 10.379-4.439 15.6 15.6 0 0 1 4.1.557L422.888 47.79c-9.577 9.8-17.315 20.409-22.174 30.3a29.237 29.237 0 1 0 24.957 8.257 28.669 28.669 0 0 0-8.161-5.747 116.633 116.633 0 0 1 17.88-22.711 145.14 145.14 0 0 1 5.567-5.261l14.531 3.888 39.96 149.1a14.463 14.463 0 0 1-3.916 14.512zM464.687 36.618c8.823-3.878 12.6-2.84 13.069-2.378 1.368 1.383.613 8.993-6.181 20.433l-1.839-6.751a7.906 7.906 0 0 0-5.662-5.661l-6.7-1.8a65.525 65.525 0 0 1 7.313-3.843z" fill="#ffffff" opacity="1" data-original="#000000"></path></g></svg>