<svg xmlns="http://www.w3.org/2000/svg" version="1.1" xmlns:xlink="http://www.w3.org/1999/xlink" width="512" height="512" x="0" y="0" viewBox="0 0 8.467 8.467" style="enable-background:new 0 0 512 512" xml:space="preserve" class=""><g><path fill-rule="evenodd" d="M4.239.266a.797.797 0 0 0-.794.794c0 .135.037.26.098.373-.32.099-.612.262-.858.475a.265.265 0 1 0 .346.4 1.837 1.837 0 0 1 1.208-.452c1.02 0 1.855.835 1.855 1.855v1.463a.265.265 0 0 0 .028.119l.476.948c.093.186-.03.383-.239.383H2.121c-.21 0-.332-.196-.239-.383l.476-.948a.265.265 0 0 0 .028-.119V3.711c0-.218.04-.427.111-.624a.265.265 0 1 0-.499-.18c-.09.25-.142.52-.142.804v1.4l-.448.893c-.26.52.133 1.15.713 1.15h.82c.124.603.66 1.061 1.299 1.061s1.175-.458 1.298-1.06h.821c.58 0 .974-.631.713-1.15l-.448-.893V3.71a2.398 2.398 0 0 0-1.686-2.28.778.778 0 0 0 .098-.371.8.8 0 0 0-.797-.794zM2.66.698a.265.265 0 0 0-.144.038 3.457 3.457 0 0 0-1.72 2.975.265.265 0 1 0 .53 0c0-1.068.59-2.01 1.458-2.517A.265.265 0 0 0 2.66.698zm3.152 0a.265.265 0 0 0-.116.496 2.926 2.926 0 0 1 1.459 2.517.265.265 0 1 0 .53 0A3.456 3.456 0 0 0 5.965.737a.265.265 0 0 0-.153-.038zM4.239.795c.15 0 .266.117.266.266 0 .15-.117.264-.266.264a.26.26 0 0 1-.264-.264c0-.15.114-.266.264-.266zm-.746 6.36h1.494a.788.788 0 0 1-.747.531.788.788 0 0 1-.747-.53z" paint-order="stroke fill markers" fill="#ffffff" opacity="1" data-original="#000000" class=""></path></g></svg>