<svg xmlns="http://www.w3.org/2000/svg" version="1.1" xmlns:xlink="http://www.w3.org/1999/xlink" width="512" height="512" x="0" y="0" viewBox="0 0 512 512" style="enable-background:new 0 0 512 512" xml:space="preserve" class=""><g><path d="M256 512a20.011 20.011 0 0 1-7.538-1.474c-62.949-25.203-116.312-68.211-154.329-124.382C56.103 329.951 36 264.383 36 196.529V60a19.999 19.999 0 0 1 12.443-18.517C52.594 39.789 151.3 0 256 0s203.406 39.789 207.557 41.483A19.999 19.999 0 0 1 476 60v136.529c0 67.83-20.108 133.393-58.151 189.603-38.03 56.191-91.398 99.208-154.33 124.401A20.011 20.011 0 0 1 256 512zM76 73.886v122.643c0 119.981 70.382 226.589 180 273.817 109.618-47.227 180-153.836 180-273.817V73.885C407.099 63.646 332.105 40 256 40S104.906 63.644 76 73.886z" fill="#ffffff" opacity="1" data-original="#000000" class=""></path><path d="M236 312a19.943 19.943 0 0 1-14.143-5.858l-60-60c-7.811-7.811-7.811-20.474 0-28.284s20.475-7.811 28.285 0L236 263.716l105.857-105.858c7.811-7.811 20.475-7.811 28.285 0s7.811 20.474 0 28.284l-120 120A19.939 19.939 0 0 1 236 312z" fill="#ffffff" opacity="1" data-original="#000000" class=""></path></g></svg>