<svg xmlns="http://www.w3.org/2000/svg" version="1.1" xmlns:xlink="http://www.w3.org/1999/xlink" width="512" height="512" x="0" y="0" viewBox="0 0 32 32" style="enable-background:new 0 0 512 512" xml:space="preserve" fill-rule="evenodd"><g><path d="M13.698 16.265C8.73 17.322 5 21.73 5 27a1 1 0 0 0 2 0c0-4.955 4.033-8.976 9-8.976s9 4.021 9 8.976a1 1 0 0 0 2 0c0-5.27-3.73-9.678-8.698-10.735a6.353 6.353 0 0 0 4.058-5.918C22.36 6.845 19.511 4 16 4s-6.36 2.845-6.36 6.347a6.353 6.353 0 0 0 4.058 5.918zM16 6c2.406 0 4.36 1.947 4.36 4.347s-1.954 4.347-4.36 4.347-4.36-1.947-4.36-4.347S13.594 6 16 6z" fill="#ffffff" opacity="1" data-original="#000000"></path></g></svg>